<svg xmlns="http://www.w3.org/2000/svg" viewBox="0 0 512 512" role="img" aria-label="每日习惯打卡图标">
  <defs>
    <linearGradient id="bg" x1="80" y1="40" x2="440" y2="480" gradientUnits="userSpaceOnUse">
      <stop offset="0" stop-color="#2563eb"/>
      <stop offset="1" stop-color="#10b981"/>
    </linearGradient>
    <filter id="shadow" x="-20%" y="-20%" width="140%" height="140%">
      <feDropShadow dx="0" dy="18" stdDeviation="18" flood-color="#172033" flood-opacity="0.22"/>
    </filter>
  </defs>
  <rect width="512" height="512" rx="112" fill="url(#bg)"/>
  <rect x="108" y="96" width="296" height="320" rx="44" fill="#ffffff" filter="url(#shadow)"/>
  <rect x="150" y="152" width="212" height="24" rx="12" fill="#dfe4ee"/>
  <rect x="150" y="212" width="160" height="22" rx="11" fill="#dfe4ee"/>
  <rect x="150" y="272" width="184" height="22" rx="11" fill="#dfe4ee"/>
  <rect x="150" y="332" width="138" height="22" rx="11" fill="#dfe4ee"/>
  <circle cx="124" cy="155" r="18" fill="#10b981"/>
  <circle cx="124" cy="215" r="18" fill="#10b981"/>
  <circle cx="124" cy="275" r="18" fill="#10b981"/>
  <circle cx="124" cy="335" r="18" fill="#10b981"/>
  <path d="M116 154l6 7 13-16" fill="none" stroke="#ffffff" stroke-width="8" stroke-linecap="round" stroke-linejoin="round"/>
  <path d="M116 214l6 7 13-16" fill="none" stroke="#ffffff" stroke-width="8" stroke-linecap="round" stroke-linejoin="round"/>
  <path d="M116 274l6 7 13-16" fill="none" stroke="#ffffff" stroke-width="8" stroke-linecap="round" stroke-linejoin="round"/>
  <path d="M116 334l6 7 13-16" fill="none" stroke="#ffffff" stroke-width="8" stroke-linecap="round" stroke-linejoin="round"/>
</svg>
